# xmcd
#
# Track frame offsets:
#	150
#	23865
#	46490
#	71802
#	89195
#	112377
#	132382
#	153170
#	181915
#
# Disc length: 2660 seconds
#
# Revision: 1
# Processed by: cddbd v1.4PL0 Copyright (c) Steve Scherf et al.
# Submitted via: CDmax 1.8
#
DISCID=840a6209
DTITLE=Atomsko Skloniste - Terra Mistica
DYEAR=1995
DGENRE=Blues
TTITLE0=Moja zemlja
TTITLE1=Ciganka
TTITLE2=Izvan sazvijezdja
TTITLE3=Ona
TTITLE4=Svirao je R and R
TTITLE5=Ljetne djevojke
TTITLE6=Sam
TTITLE7=Ne tuguj
TTITLE8=Kisni blues
EXTD=
EXTT0=
EXTT1=
EXTT2=
EXTT3=
EXTT4=
EXTT5=
EXTT6=
EXTT7=
EXTT8=
PLAYORDER=
